<svg xmlns="http://www.w3.org/2000/svg" xmlns:xlink="http://www.w3.org/1999/xlink" width="500" zoomAndPan="magnify" viewBox="0 0 375 374.999991" height="500" preserveAspectRatio="xMidYMid meet" version="1.0"><defs><clipPath id="0299bdec6f"><path d="M 124 67.4375 L 250 67.4375 L 250 194 L 124 194 Z M 124 67.4375 " clip-rule="nonzero"/></clipPath></defs><rect x="-37.5" width="450" fill="#ffffff" y="-37.499999" height="449.999989" fill-opacity="1"/><rect x="-37.5" width="450" fill="#ffffff" y="-37.499999" height="449.999989" fill-opacity="1"/><g clip-path="url(#0299bdec6f)"><path fill="#83924f" d="M 249.746094 130.5 C 249.746094 132.550781 249.644531 134.597656 249.445312 136.640625 C 249.246094 138.683594 248.945312 140.710938 248.542969 142.722656 C 248.144531 144.734375 247.644531 146.722656 247.050781 148.6875 C 246.453125 150.652344 245.761719 152.582031 244.976562 154.476562 C 244.191406 156.371094 243.316406 158.226562 242.347656 160.035156 C 241.382812 161.84375 240.328125 163.601562 239.1875 165.308594 C 238.046875 167.015625 236.828125 168.660156 235.523438 170.246094 C 234.222656 171.832031 232.847656 173.351562 231.394531 174.804688 C 229.945312 176.253906 228.425781 177.628906 226.839844 178.933594 C 225.253906 180.234375 223.609375 181.453125 221.902344 182.59375 C 220.195312 183.734375 218.4375 184.789062 216.628906 185.753906 C 214.820312 186.722656 212.964844 187.597656 211.070312 188.382812 C 209.175781 189.167969 207.246094 189.859375 205.28125 190.457031 C 203.316406 191.050781 201.328125 191.550781 199.316406 191.949219 C 197.304688 192.351562 195.277344 192.652344 193.234375 192.851562 C 191.191406 193.054688 189.144531 193.152344 187.09375 193.152344 C 185.042969 193.152344 182.996094 193.054688 180.953125 192.851562 C 178.910156 192.652344 176.882812 192.351562 174.871094 191.949219 C 172.859375 191.550781 170.871094 191.050781 168.90625 190.457031 C 166.941406 189.859375 165.011719 189.167969 163.117188 188.382812 C 161.222656 187.597656 159.367188 186.722656 157.558594 185.753906 C 155.75 184.789062 153.992188 183.734375 152.285156 182.59375 C 150.578125 181.453125 148.933594 180.234375 147.347656 178.933594 C 145.761719 177.628906 144.242188 176.253906 142.792969 174.804688 C 141.339844 173.351562 139.964844 171.832031 138.660156 170.246094 C 137.359375 168.660156 136.140625 167.015625 135 165.308594 C 133.859375 163.601562 132.804688 161.84375 131.839844 160.035156 C 130.871094 158.226562 129.996094 156.371094 129.210938 154.476562 C 128.425781 152.582031 127.734375 150.652344 127.136719 148.6875 C 126.542969 146.722656 126.042969 144.734375 125.644531 142.722656 C 125.242188 140.710938 124.941406 138.683594 124.742188 136.640625 C 124.539062 134.597656 124.441406 132.550781 124.441406 130.5 C 124.441406 128.449219 124.539062 126.402344 124.742188 124.359375 C 124.941406 122.316406 125.242188 120.289062 125.644531 118.277344 C 126.042969 116.265625 126.542969 114.277344 127.136719 112.3125 C 127.734375 110.347656 128.425781 108.417969 129.210938 106.523438 C 129.996094 104.628906 130.871094 102.773438 131.839844 100.964844 C 132.804688 99.15625 133.859375 97.398438 135 95.691406 C 136.140625 93.984375 137.359375 92.339844 138.660156 90.753906 C 139.964844 89.167969 141.339844 87.648438 142.792969 86.199219 C 144.242188 84.746094 145.761719 83.371094 147.347656 82.070312 C 148.933594 80.765625 150.578125 79.546875 152.285156 78.40625 C 153.992188 77.265625 155.75 76.210938 157.558594 75.246094 C 159.367188 74.277344 161.222656 73.402344 163.117188 72.617188 C 165.011719 71.832031 166.941406 71.140625 168.90625 70.542969 C 170.871094 69.949219 172.859375 69.449219 174.871094 69.050781 C 176.882812 68.648438 178.910156 68.351562 180.953125 68.148438 C 182.996094 67.949219 185.042969 67.847656 187.09375 67.847656 C 189.144531 67.847656 191.191406 67.949219 193.234375 68.148438 C 195.277344 68.351562 197.304688 68.648438 199.316406 69.050781 C 201.328125 69.449219 203.316406 69.949219 205.28125 70.542969 C 207.246094 71.140625 209.175781 71.832031 211.070312 72.617188 C 212.964844 73.402344 214.820312 74.277344 216.628906 75.246094 C 218.4375 76.210938 220.195312 77.265625 221.902344 78.40625 C 223.609375 79.546875 225.253906 80.765625 226.839844 82.070312 C 228.425781 83.371094 229.945312 84.746094 231.394531 86.199219 C 232.847656 87.648438 234.222656 89.167969 235.523438 90.753906 C 236.828125 92.339844 238.046875 93.984375 239.1875 95.691406 C 240.328125 97.398438 241.382812 99.15625 242.347656 100.964844 C 243.316406 102.773438 244.191406 104.628906 244.976562 106.523438 C 245.761719 108.417969 246.453125 110.347656 247.050781 112.3125 C 247.644531 114.277344 248.144531 116.265625 248.542969 118.277344 C 248.945312 120.289062 249.246094 122.316406 249.445312 124.359375 C 249.644531 126.402344 249.746094 128.449219 249.746094 130.5 Z M 249.746094 130.5 " fill-opacity="1" fill-rule="nonzero"/></g><path fill="#83924f" d="M 102.890625 306.332031 L 271.296875 306.332031 C 271.90625 306.328125 272.515625 306.300781 273.125 306.257812 C 273.734375 306.214844 274.34375 306.152344 274.949219 306.074219 C 275.554688 305.992188 276.15625 305.894531 276.757812 305.78125 C 277.355469 305.664062 277.953125 305.53125 278.542969 305.378906 C 279.136719 305.226562 279.722656 305.058594 280.304688 304.871094 C 280.886719 304.683594 281.460938 304.480469 282.03125 304.257812 C 282.601562 304.039062 283.164062 303.800781 283.71875 303.542969 C 284.273438 303.289062 284.820312 303.019531 285.359375 302.730469 C 285.898438 302.441406 286.429688 302.140625 286.949219 301.820312 C 287.46875 301.5 287.980469 301.164062 288.480469 300.816406 C 288.980469 300.464844 289.472656 300.101562 289.949219 299.722656 C 290.429688 299.339844 290.894531 298.949219 291.351562 298.539062 C 291.804688 298.132812 292.25 297.710938 292.679688 297.277344 C 293.109375 296.84375 293.523438 296.398438 293.929688 295.9375 C 294.332031 295.480469 294.71875 295.011719 295.09375 294.527344 C 295.46875 294.046875 295.832031 293.550781 296.175781 293.046875 C 296.523438 292.542969 296.851562 292.03125 297.167969 291.507812 C 297.480469 290.984375 297.78125 290.449219 298.0625 289.910156 C 298.34375 289.367188 298.613281 288.820312 298.863281 288.261719 C 299.113281 287.703125 299.34375 287.140625 299.558594 286.566406 C 299.777344 285.996094 299.976562 285.417969 300.15625 284.835938 C 300.339844 284.253906 300.503906 283.664062 300.648438 283.070312 C 300.792969 282.476562 300.921875 281.878906 301.03125 281.28125 C 301.144531 280.679688 301.234375 280.074219 301.308594 279.46875 C 301.382812 278.863281 301.441406 278.253906 301.476562 277.644531 C 301.515625 277.035156 301.535156 276.425781 301.535156 275.8125 C 301.539062 275.203125 301.519531 274.59375 301.484375 273.984375 C 301.449219 273.371094 301.394531 272.765625 301.324219 272.15625 C 301.253906 271.550781 301.164062 270.945312 301.054688 270.347656 C 300.945312 269.746094 300.820312 269.148438 300.675781 268.554688 C 300.53125 267.960938 300.371094 267.371094 300.191406 266.785156 C 300.011719 266.203125 299.816406 265.625 299.601562 265.050781 C 298.734375 262.855469 297.785156 260.699219 296.757812 258.574219 C 295.726562 256.449219 294.621094 254.367188 293.433594 252.328125 C 292.25 250.285156 290.988281 248.292969 289.652344 246.34375 C 288.320312 244.398438 286.914062 242.503906 285.4375 240.664062 C 283.960938 238.820312 282.414062 237.039062 280.804688 235.3125 C 279.195312 233.585938 277.523438 231.925781 275.785156 230.324219 C 274.050781 228.722656 272.257812 227.191406 270.410156 225.722656 C 268.558594 224.257812 266.65625 222.863281 264.703125 221.539062 C 262.75 220.214844 260.746094 218.96875 258.699219 217.792969 C 256.652344 216.621094 254.5625 215.523438 252.433594 214.507812 C 250.304688 213.488281 248.136719 212.554688 245.9375 211.699219 C 243.738281 210.84375 241.507812 210.074219 239.25 209.382812 C 236.992188 208.695312 234.714844 208.09375 232.410156 207.578125 C 230.105469 207.058594 227.789062 206.628906 225.453125 206.285156 C 223.117188 205.941406 220.773438 205.6875 218.417969 205.519531 C 216.0625 205.351562 213.707031 205.269531 211.347656 205.28125 L 162.839844 205.28125 C 160.480469 205.28125 158.125 205.367188 155.773438 205.542969 C 153.421875 205.714844 151.082031 205.980469 148.746094 206.328125 C 146.414062 206.675781 144.097656 207.113281 141.796875 207.636719 C 139.5 208.15625 137.21875 208.761719 134.964844 209.453125 C 132.710938 210.148438 130.484375 210.921875 128.289062 211.777344 C 126.089844 212.636719 123.925781 213.574219 121.800781 214.589844 C 119.671875 215.609375 117.585938 216.707031 115.539062 217.878906 C 113.496094 219.054688 111.496094 220.300781 109.542969 221.625 C 107.589844 222.945312 105.6875 224.339844 103.839844 225.804688 C 101.988281 227.269531 100.199219 228.800781 98.460938 230.398438 C 96.726562 231.996094 95.054688 233.65625 93.441406 235.375 C 91.832031 237.097656 90.285156 238.878906 88.808594 240.714844 C 87.328125 242.554688 85.917969 244.441406 84.582031 246.386719 C 83.242188 248.328125 81.980469 250.316406 80.789062 252.351562 C 79.597656 254.390625 78.484375 256.46875 77.449219 258.585938 C 76.414062 260.707031 75.460938 262.859375 74.585938 265.050781 C 74.371094 265.625 74.175781 266.203125 73.996094 266.785156 C 73.816406 267.371094 73.65625 267.957031 73.511719 268.550781 C 73.367188 269.144531 73.242188 269.742188 73.132812 270.34375 C 73.023438 270.945312 72.933594 271.550781 72.863281 272.15625 C 72.789062 272.765625 72.738281 273.371094 72.699219 273.980469 C 72.664062 274.59375 72.648438 275.203125 72.648438 275.8125 C 72.652344 276.425781 72.667969 277.035156 72.707031 277.644531 C 72.746094 278.253906 72.800781 278.863281 72.875 279.46875 C 72.949219 280.074219 73.042969 280.679688 73.152344 281.28125 C 73.261719 281.882812 73.390625 282.476562 73.535156 283.070312 C 73.683594 283.664062 73.847656 284.253906 74.027344 284.835938 C 74.210938 285.417969 74.40625 285.996094 74.625 286.570312 C 74.839844 287.140625 75.074219 287.703125 75.324219 288.261719 C 75.574219 288.820312 75.839844 289.371094 76.121094 289.910156 C 76.40625 290.453125 76.703125 290.984375 77.019531 291.507812 C 77.332031 292.03125 77.664062 292.546875 78.007812 293.050781 C 78.355469 293.554688 78.714844 294.046875 79.089844 294.527344 C 79.464844 295.011719 79.851562 295.480469 80.257812 295.941406 C 80.660156 296.398438 81.078125 296.847656 81.507812 297.28125 C 81.9375 297.714844 82.378906 298.136719 82.835938 298.542969 C 83.289062 298.949219 83.757812 299.34375 84.234375 299.722656 C 84.714844 300.101562 85.203125 300.46875 85.703125 300.816406 C 86.207031 301.167969 86.714844 301.503906 87.238281 301.820312 C 87.757812 302.140625 88.289062 302.445312 88.828125 302.734375 C 89.367188 303.019531 89.914062 303.292969 90.46875 303.546875 C 91.023438 303.800781 91.585938 304.039062 92.15625 304.261719 C 92.722656 304.480469 93.300781 304.6875 93.882812 304.871094 C 94.464844 305.058594 95.050781 305.230469 95.640625 305.378906 C 96.234375 305.53125 96.828125 305.664062 97.429688 305.78125 C 98.03125 305.898438 98.632812 305.996094 99.238281 306.074219 C 99.84375 306.152344 100.453125 306.214844 101.0625 306.257812 C 101.671875 306.300781 102.28125 306.328125 102.890625 306.332031 Z M 102.890625 306.332031 " fill-opacity="1" fill-rule="nonzero"/></svg>