<svg xmlns="http://www.w3.org/2000/svg" xmlns:xlink="http://www.w3.org/1999/xlink" width="500" zoomAndPan="magnify" viewBox="0 0 375 374.999991" height="500" preserveAspectRatio="xMidYMid meet" version="1.0"><defs><clipPath id="ad093894ed"><path d="M 49.503906 49.503906 L 325.503906 49.503906 L 325.503906 325.503906 L 49.503906 325.503906 Z M 49.503906 49.503906 " clip-rule="nonzero"/></clipPath></defs><rect x="-37.5" width="450" fill="#ffffff" y="-37.499999" height="449.999989" fill-opacity="1"/><rect x="-37.5" width="450" fill="#ffffff" y="-37.499999" height="449.999989" fill-opacity="1"/><g clip-path="url(#ad093894ed)"><path fill="#e6f0fa" d="M 325.503906 187.503906 C 325.503906 189.761719 325.449219 192.019531 325.335938 194.273438 C 325.226562 196.53125 325.0625 198.78125 324.839844 201.03125 C 324.617188 203.277344 324.339844 205.519531 324.011719 207.753906 C 323.679688 209.988281 323.292969 212.210938 322.851562 214.425781 C 322.410156 216.640625 321.917969 218.84375 321.367188 221.035156 C 320.820312 223.226562 320.21875 225.402344 319.5625 227.5625 C 318.90625 229.722656 318.199219 231.867188 317.4375 233.996094 C 316.675781 236.121094 315.863281 238.226562 315 240.3125 C 314.136719 242.402344 313.21875 244.464844 312.253906 246.507812 C 311.289062 248.546875 310.273438 250.566406 309.210938 252.558594 C 308.144531 254.546875 307.03125 256.511719 305.871094 258.449219 C 304.710938 260.386719 303.5 262.292969 302.246094 264.171875 C 300.992188 266.050781 299.691406 267.894531 298.347656 269.710938 C 297 271.523438 295.613281 273.304688 294.179688 275.050781 C 292.746094 276.796875 291.273438 278.503906 289.753906 280.179688 C 288.238281 281.851562 286.683594 283.488281 285.085938 285.085938 C 283.488281 286.683594 281.851562 288.238281 280.179688 289.753906 C 278.503906 291.273438 276.796875 292.746094 275.050781 294.179688 C 273.304688 295.613281 271.523438 297 269.710938 298.347656 C 267.894531 299.691406 266.050781 300.992188 264.171875 302.246094 C 262.292969 303.5 260.386719 304.710938 258.449219 305.871094 C 256.511719 307.03125 254.546875 308.144531 252.558594 309.210938 C 250.566406 310.273438 248.546875 311.289062 246.507812 312.253906 C 244.464844 313.21875 242.402344 314.136719 240.3125 315 C 238.226562 315.863281 236.121094 316.675781 233.996094 317.4375 C 231.867188 318.199219 229.722656 318.90625 227.5625 319.5625 C 225.402344 320.21875 223.226562 320.820312 221.035156 321.367188 C 218.84375 321.917969 216.640625 322.410156 214.425781 322.851562 C 212.210938 323.292969 209.988281 323.679688 207.753906 324.011719 C 205.519531 324.339844 203.277344 324.617188 201.03125 324.839844 C 198.78125 325.0625 196.53125 325.226562 194.273438 325.335938 C 192.019531 325.449219 189.761719 325.503906 187.503906 325.503906 C 185.246094 325.503906 182.988281 325.449219 180.734375 325.335938 C 178.476562 325.226562 176.226562 325.0625 173.976562 324.839844 C 171.730469 324.617188 169.488281 324.339844 167.253906 324.011719 C 165.019531 323.679688 162.796875 323.292969 160.582031 322.851562 C 158.367188 322.410156 156.164062 321.917969 153.972656 321.367188 C 151.78125 320.820312 149.605469 320.21875 147.445312 319.5625 C 145.285156 318.90625 143.140625 318.199219 141.011719 317.4375 C 138.886719 316.675781 136.78125 315.863281 134.695312 315 C 132.605469 314.136719 130.542969 313.21875 128.5 312.253906 C 126.460938 311.289062 124.441406 310.273438 122.453125 309.210938 C 120.460938 308.144531 118.496094 307.03125 116.558594 305.871094 C 114.621094 304.710938 112.714844 303.5 110.835938 302.246094 C 108.957031 300.992188 107.113281 299.691406 105.296875 298.347656 C 103.484375 297 101.703125 295.613281 99.957031 294.179688 C 98.210938 292.746094 96.503906 291.273438 94.828125 289.753906 C 93.15625 288.238281 91.519531 286.683594 89.921875 285.085938 C 88.328125 283.488281 86.769531 281.851562 85.253906 280.179688 C 83.734375 278.503906 82.261719 276.796875 80.828125 275.050781 C 79.394531 273.304688 78.007812 271.523438 76.660156 269.710938 C 75.316406 267.894531 74.015625 266.050781 72.761719 264.171875 C 71.507812 262.292969 70.296875 260.386719 69.136719 258.449219 C 67.976562 256.511719 66.863281 254.546875 65.800781 252.558594 C 64.734375 250.566406 63.71875 248.546875 62.753906 246.507812 C 61.789062 244.464844 60.871094 242.402344 60.007812 240.3125 C 59.144531 238.226562 58.332031 236.121094 57.570312 233.996094 C 56.808594 231.867188 56.101562 229.722656 55.445312 227.5625 C 54.789062 225.402344 54.1875 223.226562 53.640625 221.035156 C 53.089844 218.84375 52.597656 216.640625 52.15625 214.425781 C 51.714844 212.210938 51.328125 209.988281 50.996094 207.753906 C 50.667969 205.519531 50.390625 203.277344 50.167969 201.03125 C 49.945312 198.78125 49.78125 196.53125 49.671875 194.273438 C 49.558594 192.019531 49.503906 189.761719 49.503906 187.503906 C 49.503906 185.246094 49.558594 182.988281 49.671875 180.734375 C 49.78125 178.476562 49.945312 176.226562 50.167969 173.976562 C 50.390625 171.730469 50.667969 169.488281 50.996094 167.253906 C 51.328125 165.019531 51.714844 162.796875 52.15625 160.582031 C 52.597656 158.367188 53.089844 156.164062 53.640625 153.972656 C 54.1875 151.78125 54.789062 149.605469 55.445312 147.445312 C 56.101562 145.285156 56.808594 143.140625 57.570312 141.011719 C 58.332031 138.886719 59.144531 136.78125 60.007812 134.695312 C 60.871094 132.605469 61.789062 130.542969 62.753906 128.5 C 63.71875 126.460938 64.734375 124.441406 65.800781 122.453125 C 66.863281 120.460938 67.976562 118.496094 69.136719 116.558594 C 70.296875 114.621094 71.507812 112.714844 72.761719 110.835938 C 74.015625 108.957031 75.316406 107.113281 76.660156 105.296875 C 78.007812 103.484375 79.394531 101.703125 80.828125 99.957031 C 82.261719 98.210938 83.734375 96.503906 85.253906 94.828125 C 86.769531 93.15625 88.328125 91.519531 89.921875 89.921875 C 91.519531 88.328125 93.15625 86.769531 94.828125 85.253906 C 96.503906 83.734375 98.210938 82.261719 99.957031 80.828125 C 101.703125 79.394531 103.484375 78.007812 105.296875 76.660156 C 107.113281 75.316406 108.957031 74.015625 110.835938 72.761719 C 112.714844 71.507812 114.621094 70.296875 116.558594 69.136719 C 118.496094 67.976562 120.460938 66.863281 122.453125 65.800781 C 124.441406 64.734375 126.460938 63.71875 128.5 62.753906 C 130.542969 61.789062 132.605469 60.871094 134.695312 60.007812 C 136.78125 59.144531 138.886719 58.332031 141.011719 57.570312 C 143.140625 56.808594 145.285156 56.101562 147.445312 55.445312 C 149.605469 54.789062 151.78125 54.1875 153.972656 53.640625 C 156.164062 53.089844 158.367188 52.597656 160.582031 52.15625 C 162.796875 51.714844 165.019531 51.328125 167.253906 50.996094 C 169.488281 50.667969 171.730469 50.390625 173.976562 50.167969 C 176.226562 49.945312 178.476562 49.78125 180.734375 49.671875 C 182.988281 49.558594 185.246094 49.503906 187.503906 49.503906 C 189.761719 49.503906 192.019531 49.558594 194.273438 49.671875 C 196.53125 49.78125 198.78125 49.945312 201.03125 50.167969 C 203.277344 50.390625 205.519531 50.667969 207.753906 50.996094 C 209.988281 51.328125 212.210938 51.714844 214.425781 52.15625 C 216.640625 52.597656 218.84375 53.089844 221.035156 53.640625 C 223.226562 54.1875 225.402344 54.789062 227.5625 55.445312 C 229.722656 56.101562 231.867188 56.808594 233.996094 57.570312 C 236.121094 58.332031 238.226562 59.144531 240.3125 60.007812 C 242.402344 60.871094 244.464844 61.789062 246.507812 62.753906 C 248.546875 63.71875 250.566406 64.734375 252.558594 65.800781 C 254.546875 66.863281 256.511719 67.976562 258.449219 69.136719 C 260.386719 70.296875 262.292969 71.507812 264.171875 72.761719 C 266.050781 74.015625 267.894531 75.316406 269.710938 76.660156 C 271.523438 78.007812 273.304688 79.394531 275.050781 80.828125 C 276.796875 82.261719 278.503906 83.734375 280.179688 85.253906 C 281.851562 86.769531 283.488281 88.328125 285.085938 89.921875 C 286.683594 91.519531 288.238281 93.15625 289.753906 94.828125 C 291.273438 96.503906 292.746094 98.210938 294.179688 99.957031 C 295.613281 101.703125 297 103.484375 298.347656 105.296875 C 299.691406 107.113281 300.992188 108.957031 302.246094 110.835938 C 303.5 112.714844 304.710938 114.621094 305.871094 116.558594 C 307.03125 118.496094 308.144531 120.460938 309.210938 122.453125 C 310.273438 124.441406 311.289062 126.460938 312.253906 128.5 C 313.21875 130.542969 314.136719 132.605469 315 134.695312 C 315.863281 136.78125 316.675781 138.886719 317.4375 141.011719 C 318.199219 143.140625 318.90625 145.285156 319.5625 147.445312 C 320.21875 149.605469 320.820312 151.78125 321.367188 153.972656 C 321.917969 156.164062 322.410156 158.367188 322.851562 160.582031 C 323.292969 162.796875 323.679688 165.019531 324.011719 167.253906 C 324.339844 169.488281 324.617188 171.730469 324.839844 173.976562 C 325.0625 176.226562 325.226562 178.476562 325.335938 180.734375 C 325.449219 182.988281 325.503906 185.246094 325.503906 187.503906 Z M 325.503906 187.503906 " fill-opacity="1" fill-rule="nonzero"/></g><path fill="#629fad" d="M 190.816406 162.140625 L 215.351562 137.605469 C 212.660156 127.148438 215.664062 115.863281 223.324219 108.101562 C 231.503906 100.128906 243.199219 97.230469 254.175781 100.644531 C 255.003906 100.957031 255.625 101.679688 255.832031 102.507812 C 256.039062 103.441406 255.832031 104.269531 255.105469 104.992188 L 235.023438 125.078125 L 249.828125 139.882812 L 269.910156 119.796875 C 270.53125 119.175781 271.566406 118.867188 272.394531 119.074219 C 273.222656 119.175781 273.949219 119.902344 274.257812 120.832031 C 277.675781 131.703125 274.671875 143.609375 266.804688 151.683594 C 259.039062 159.449219 247.859375 162.242188 237.402344 159.65625 L 212.867188 184.085938 Z M 190.816406 162.140625 " fill-opacity="1" fill-rule="evenodd"/><path fill="#629fad" d="M 129.839844 275.8125 C 126.835938 275.8125 123.628906 275.398438 120.625 274.363281 C 119.796875 274.050781 119.175781 273.429688 118.96875 272.5 C 118.660156 271.671875 118.96875 270.84375 119.589844 270.117188 L 139.777344 250.035156 L 124.664062 235.230469 L 104.578125 255.3125 C 103.957031 255.832031 103.027344 256.140625 102.09375 256.039062 C 101.265625 255.832031 100.542969 255.105469 100.230469 254.277344 C 96.816406 243.199219 99.816406 231.503906 107.890625 223.425781 C 115.65625 215.664062 126.628906 212.660156 137.191406 215.558594 L 161.933594 190.714844 L 183.984375 212.867188 L 159.550781 237.402344 C 162.242188 247.859375 159.449219 258.9375 151.476562 266.804688 C 145.574219 272.707031 137.914062 275.8125 129.839844 275.8125 Z M 129.839844 275.8125 " fill-opacity="1" fill-rule="evenodd"/><path fill="#4d6b7d" d="M 244.960938 275.8125 C 236.679688 275.8125 229.019531 272.707031 223.324219 266.804688 C 215.558594 259.039062 212.558594 247.964844 215.25 237.402344 L 137.605469 159.550781 C 127.148438 162.242188 115.863281 159.242188 108.308594 151.683594 C 100.230469 143.609375 97.230469 131.703125 100.644531 120.832031 C 100.957031 119.902344 101.679688 119.382812 102.507812 119.074219 C 103.441406 118.867188 104.269531 119.074219 104.992188 119.796875 L 125.078125 139.882812 L 139.570312 124.765625 L 119.589844 104.890625 C 119.074219 104.269531 118.761719 103.234375 118.96875 102.507812 C 119.175781 101.578125 119.796875 100.957031 120.625 100.644531 C 131.601562 97.230469 143.296875 100.128906 151.476562 108.308594 C 159.242188 116.070312 162.242188 127.25 159.550781 137.707031 L 237.402344 215.351562 C 244.132812 213.695312 251.277344 214.214844 257.589844 217.007812 C 257.695312 217.113281 258.003906 217.113281 258.210938 217.214844 C 258.417969 217.214844 258.625 217.421875 258.9375 217.527344 L 259.144531 217.734375 C 259.351562 217.734375 259.351562 217.835938 259.453125 217.835938 L 259.867188 217.941406 C 259.867188 217.941406 260.074219 217.941406 260.074219 218.148438 L 260.179688 218.25 C 260.28125 218.25 260.28125 218.355469 260.488281 218.355469 L 260.800781 218.5625 C 260.902344 218.5625 261.007812 218.664062 261.214844 218.871094 L 261.316406 218.871094 C 261.421875 218.871094 261.730469 218.976562 261.9375 219.078125 L 262.144531 219.285156 C 262.351562 219.285156 262.457031 219.390625 262.664062 219.597656 L 263.078125 219.804688 C 263.179688 219.804688 263.179688 220.011719 263.386719 220.011719 C 263.386719 220.011719 263.386719 220.011719 263.492188 220.011719 C 263.800781 220.113281 263.90625 220.21875 264.007812 220.425781 C 264.214844 220.527344 264.320312 220.527344 264.527344 220.734375 C 264.628906 220.839844 264.734375 220.839844 264.941406 220.941406 C 264.941406 220.941406 264.941406 220.941406 265.042969 220.941406 L 265.457031 221.253906 C 265.664062 221.460938 265.769531 221.460938 265.769531 221.5625 C 265.871094 221.667969 266.082031 221.875 266.390625 221.976562 C 266.496094 222.183594 266.597656 222.289062 266.804688 222.390625 L 267.945312 223.53125 C 267.945312 223.53125 268.046875 223.738281 268.046875 223.839844 C 268.253906 223.839844 268.253906 224.046875 268.359375 224.046875 L 268.460938 224.152344 C 268.667969 224.253906 268.773438 224.460938 268.980469 224.566406 C 269.082031 224.566406 269.082031 224.667969 269.082031 224.875 C 269.394531 225.1875 269.703125 225.394531 269.808594 225.703125 L 269.910156 225.910156 C 270.117188 226.015625 270.222656 226.117188 270.222656 226.324219 L 270.324219 226.429688 C 270.53125 226.535156 270.636719 226.84375 270.84375 227.15625 C 270.945312 227.257812 270.945312 227.257812 271.050781 227.464844 L 271.257812 227.777344 C 271.359375 227.878906 271.566406 228.191406 271.566406 228.292969 C 271.566406 228.5 271.671875 228.5 271.671875 228.605469 L 272.085938 229.328125 C 272.085938 229.433594 272.1875 229.433594 272.1875 229.640625 L 272.1875 229.742188 C 272.394531 229.847656 272.394531 230.054688 272.5 230.363281 C 272.707031 230.46875 272.707031 230.570312 272.808594 230.777344 C 272.914062 230.984375 273.121094 231.191406 273.121094 231.503906 C 273.222656 231.605469 273.222656 231.710938 273.222656 232.019531 C 278.8125 243.71875 276.433594 257.589844 267.21875 266.804688 C 260.902344 272.5 253.140625 275.8125 244.960938 275.8125 Z M 269.1875 226.117188 Z M 262.664062 226.324219 Z M 244.960938 261.421875 C 240.820312 261.421875 236.679688 259.867188 233.46875 256.761719 C 230.363281 253.554688 228.605469 249.414062 228.605469 245.0625 C 228.605469 240.820312 230.363281 236.679688 233.46875 233.46875 C 239.785156 227.15625 250.242188 227.15625 256.554688 233.46875 C 263.078125 239.886719 263.078125 250.449219 256.554688 256.761719 C 253.449219 259.867188 249.101562 261.421875 244.960938 261.421875 Z M 244.960938 233.574219 C 242.0625 233.574219 239.265625 234.816406 236.886719 236.886719 C 234.816406 239.058594 233.574219 241.957031 233.574219 244.960938 C 233.574219 247.964844 234.816406 250.863281 236.886719 253.035156 C 241.335938 257.488281 248.585938 257.488281 253.035156 253.035156 C 257.488281 248.585938 257.488281 241.335938 253.035156 236.78125 C 250.863281 234.816406 247.859375 233.574219 244.960938 233.574219 Z M 244.960938 233.574219 " fill-opacity="1" fill-rule="evenodd"/></svg>